<?xml version="1.0" encoding="utf-8"?>
<!-- Generator: Adobe Illustrator 27.2.0, SVG Export Plug-In . SVG Version: 6.00 Build 0)  -->
<svg version="1.1" id="Слой_1" xmlns="http://www.w3.org/2000/svg" xmlns:xlink="http://www.w3.org/1999/xlink" x="0px" y="0px"
	 viewBox="0 0 527.9 234.6" style="enable-background:new 0 0 527.9 234.6;" xml:space="preserve">
<style type="text/css">
	.st0{fill:#fff;}
	.st1{fill-rule:evenodd;clip-rule:evenodd;fill:#fff;}
</style>
<g>
	<g>
		<path class="st0" d="M66.2,232.1c-0.7,0.6-1.3,0.6-1.8,0c-0.6-0.6-0.6-1.2-0.1-1.9c4.6-5.1,9.2-10.1,13.8-15.2
			c8.1-9,16.2-18,24.3-26.9c4.1-4.5,8.2-9,12.2-13.5c2-2.2,4-4.5,6.1-6.7c1.8-1.9,3.4-4,4.7-6.3c0.4-0.7,1-0.8,1.7-0.5
			c0.7,0.3,0.9,0.8,0.7,1.6c-1.9,4.6-3.7,9.2-5.4,13.8c-3,8.2-5.7,16.5-8.1,24.9c-2.4,8.4-4.5,16.8-6.4,25.4
			c-0.3,0.8-0.8,1.1-1.6,0.9c-0.7-0.2-1.1-0.7-1-1.6c1.1-4.8,2.2-9.6,3.4-14.4c2.2-8.4,4.6-16.8,7.4-25.1c2.7-8.3,5.8-16.5,9.1-24.5
			c0.8,0.3,1.6,0.7,2.4,1c-1.5,2.7-3.3,5.2-5.6,7.4c-2.3,2.5-4.5,5-6.8,7.5c-8.2,9.1-16.4,18.1-24.6,27.1
			C82.5,214,74.4,223.1,66.2,232.1z"/>
		<path class="st0" d="M119.8,227.4c-0.9,0.2-1.6-0.2-1.9-1.1c-0.2-0.9,0.2-1.6,1.1-1.9c4.8-1.8,9.6-3.6,14.4-5.5
			c6.3-2.5,12.3-5.4,18.3-8.6c7.2-4.2,14.1-8.6,21-13.3c0.9-0.5,1.6-0.3,2.1,0.5c0.5,0.8,0.3,1.5-0.5,2.2c-4.3,2.9-8.6,5.7-13,8.5
			c-5.8,3.7-11.8,7-18,9.9C135.5,221.4,127.7,224.5,119.8,227.4z M140.2,161.7c0.4-0.9,1-1.3,1.9-1.1c0.9,0.2,1.3,0.9,1.1,1.9
			c-1.3,4.8-2.6,9.6-4.1,14.3c-5.1,17-11.3,33.6-18.4,49.8c-0.5,0.8-1.2,1-2.1,0.6c-0.8-0.6-1-1.3-0.6-2.1c2-4.5,3.9-9.1,5.7-13.6
			C130.2,195.2,135.7,178.6,140.2,161.7z M167,226.4c-0.4,0.9-1,1.3-1.9,1.1c-0.9-0.2-1.3-0.9-1.1-1.9c1.3-4.8,2.6-9.6,4.1-14.3
			c5.2-16.9,11.3-33.5,18.5-49.7c0.6-0.8,1.3-1,2.1-0.6c0.7,0.6,0.9,1.3,0.6,2.1c-2,4.5-3.9,9-5.7,13.6
			C177.1,192.9,171.6,209.5,167,226.4z"/>
		<path class="st0" d="M196.9,163.2c0.1-1,0.6-1.5,1.5-1.5c0.4,0,0.8,0.1,1.1,0.4c0.3,0.3,0.5,0.7,0.4,1.1c-0.5,4.7,0,9.4,1.4,13.9
			c1.3,4,3.7,7.1,7.1,9.3c1.9,1.2,3.9,2,6,2.5c2.1,0.5,4.3,0.8,6.5,0.8c2.4,0.1,4.8,0,7.2-0.2c2.4-0.3,4.7-0.9,7-1.8
			c2.2-1,4.2-2.3,6-3.9c1.8-1.6,3.5-3.3,5.1-5c0.8-0.7,1.5-0.7,2.2,0c0.6,0.6,0.6,1.4,0,2.2c-2,2.2-4.2,4.2-6.4,6
			c-2.3,1.9-4.8,3.3-7.7,4.2c-5,1.5-10.1,2-15.3,1.4c-2.5-0.2-4.9-0.7-7.3-1.4s-4.5-1.9-6.5-3.4c-3.6-3-6-6.8-7.1-11.2
			C196.8,172.2,196.4,167.7,196.9,163.2z M241.3,162.1c0.4-0.9,1-1.3,1.9-1.1c0.9,0.2,1.3,0.9,1.1,1.8c-1.2,4.8-2.6,9.5-4,14.2
			c-5.1,16.8-11.2,33.3-18.3,49.4c-0.5,0.7-1.2,0.9-2.1,0.6c-0.7-0.6-0.9-1.3-0.6-2.1c2-4.5,3.8-9,5.7-13.5
			C231.4,195.3,236.9,178.9,241.3,162.1z"/>
		<path class="st0" d="M266.8,161.9c0.4-0.9,1-1.3,1.9-1.1c0.9,0.2,1.2,0.9,1.1,1.9c-1.3,4.8-2.6,9.6-4.1,14.3
			c-5.1,17-11.3,33.6-18.4,49.8c-0.6,0.8-1.3,1-2.1,0.6c-0.7-0.6-0.9-1.3-0.6-2.1c2-4.5,3.9-9.1,5.7-13.6
			C256.8,195.4,262.3,178.8,266.8,161.9z M247.4,196.5c-1-0.2-1.5-0.7-1.5-1.6c0-0.9,0.5-1.4,1.5-1.5c5.2,0.2,10.4,0.3,15.6,0.3
			c18.3,0.2,36.6-0.2,54.9-1c1,0.1,1.5,0.6,1.5,1.5s-0.5,1.4-1.5,1.6c-5.2,0.3-10.4,0.5-15.6,0.6C284,197,265.7,197,247.4,196.5z
			 M293.6,226.7c-0.4,0.9-1,1.3-1.9,1.1c-0.9-0.2-1.2-0.9-1.1-1.9c1.3-4.8,2.6-9.6,4.1-14.3c5.2-17,11.4-33.6,18.6-49.8
			c0.5-0.8,1.2-1,2.1-0.6c0.7,0.6,0.9,1.3,0.6,2.1c-2,4.5-4,9.1-5.8,13.6C303.7,193.2,298.1,209.8,293.6,226.7z"/>
		<path class="st0" d="M364.1,208.6c-0.5,0.7-1.2,0.9-1.9,0.5c-0.7-0.4-0.9-1.1-0.6-1.9c0.8-1.6,1.6-3.3,2.3-4.9
			c1.5-3.5,2.6-7.2,3.4-10.9c0.8-3.8,1.1-7.5,0.7-11.4c-0.3-2.5-1-4.9-2.1-7.2c-1.1-2.3-2.6-4.2-4.6-5.9c-1.9-1.4-4-2.4-6.3-2.8
			c-2.3-0.4-4.6-0.3-7,0.3c-2.8,0.7-5.4,1.9-7.8,3.5c-2.4,1.6-4.6,3.4-6.6,5.5c-4.3,4.5-7.7,9.5-10.3,15.1c-1.2,2.6-2.2,5.2-3,8
			c-0.8,2.8-1.2,5.6-1.3,8.4c-0.1,5,1.3,9.4,4.3,13.2c3,3.5,6.7,5.6,11.2,6.3c2.2,0.3,4.5,0.3,6.7-0.1c2.6-0.5,5-1.5,7.2-2.8
			c2.9-1.7,5.4-3.8,7.5-6.2c2.1-2.5,4-5.2,5.5-8.1c0.5-0.7,1.2-0.9,1.9-0.5C364.2,207.1,364.4,207.8,364.1,208.6
			c-0.8,1.5-1.7,3-2.7,4.5c-1.9,2.8-4.1,5.4-6.7,7.6c-2.6,2.2-5.5,4-8.7,5.2c-5.1,2-10.2,2.1-15.4,0.4c-4.9-1.7-8.6-4.8-11.3-9.3
			c-1.4-2.5-2.3-5.2-2.7-8c-0.4-2.8-0.3-5.7,0.1-8.5c1.1-6.2,3.3-12,6.4-17.5c3.2-5.8,7.3-10.8,12.3-15c2.4-2,5-3.6,7.8-4.9
			s5.8-2,8.9-2.1c5.5,0,10.1,2.1,13.7,6.3c2,2.5,3.4,5.3,4.2,8.4c0.8,3.1,1.1,6.3,0.9,9.5c-0.3,4.1-1,8.1-2.3,12
			C367.5,201.2,366,205,364.1,208.6z"/>
		<path class="st0" d="M428.5,184c-0.3,0.9-0.9,1.2-1.8,1c-0.8-0.2-1.2-0.8-1.1-1.8c0.2-0.9,0.3-1.8,0.4-2.8c0.1-4.2-1.2-7.9-4-11.1
			c-3.6-3.7-8-5.5-13.1-5.4c-2.9,0.1-5.6,0.7-8.3,1.8c-2.6,1.1-5.1,2.5-7.4,4.2c-4.2,3.1-7.7,6.9-10.5,11.4
			c-2.5,4.1-4.4,8.5-5.5,13.3c-1.2,4.8-1.4,9.6-0.8,14.4c0.3,2.2,0.9,4.4,1.8,6.4c0.9,2.1,2.2,3.9,3.9,5.4c1.8,1.6,3.9,2.6,6.3,3.2
			c2.4,0.6,4.8,0.8,7.1,0.7c5-0.2,9.4-1.9,13.4-4.9c3.9-3.2,6.8-7.2,8.7-11.9c0.3-0.8,0.9-1.2,1.8-1c0.8,0.3,1.2,0.9,1,1.8
			c-0.5,1.3-1.1,2.6-1.8,3.8c-2.6,5-6.4,8.9-11.2,11.8c-4.9,2.7-10.2,3.8-15.9,3.2c-2.8-0.3-5.4-1-7.8-2.2c-2.4-1.2-4.5-2.9-6.2-5.2
			c-1.5-2.1-2.6-4.3-3.3-6.8c-0.7-2.5-1-5-1.1-7.5c-0.2-11.2,3-21.2,9.8-30.1c3.5-4.5,7.8-8.2,12.8-11.1c2.9-1.6,5.9-2.8,9.1-3.4
			c3.2-0.7,6.4-0.6,9.6,0.2c5.2,1.4,9.2,4.3,12,8.8C428.8,174.8,429.5,179.3,428.5,184z"/>
		<path class="st0" d="M428,165.7c-0.4,0-0.8-0.1-1.1-0.5c-0.3-0.3-0.5-0.7-0.5-1.1c0-0.9,0.5-1.4,1.6-1.6c4.8-0.5,9.5-0.8,14.3-1.1
			c16.8-0.9,33.5-0.4,50.2,1.6c0.4,0,0.8,0.2,1.1,0.4c0.3,0.3,0.5,0.6,0.5,1.1c0,0.4-0.2,0.8-0.5,1.1c-0.3,0.3-0.7,0.5-1.1,0.5
			c-4.7-0.6-9.4-1-14.1-1.3C461.7,163.7,444.8,164,428,165.7z M458.6,161.6c0.4-0.9,1.1-1.3,1.9-1c0.9,0.2,1.3,0.9,1.1,1.9
			c-1.3,4.9-2.6,9.7-4.1,14.4c-5.2,17.1-11.4,33.9-18.6,50.2c-0.5,0.8-1.2,1-2.1,0.6c-0.7-0.6-0.9-1.3-0.6-2.1
			c2-4.5,3.9-9.1,5.8-13.7C448.6,195.4,454.1,178.7,458.6,161.6z"/>
		<path class="st0" d="M458.1,227.4c-0.9,0.2-1.6-0.2-1.9-1.1c-0.2-0.9,0.2-1.6,1.1-1.9c4.8-1.8,9.6-3.6,14.4-5.5
			c6.3-2.5,12.3-5.4,18.3-8.6c7.2-4.2,14.1-8.6,21-13.3c0.9-0.5,1.6-0.3,2.1,0.5c0.5,0.8,0.3,1.5-0.5,2.2c-4.3,2.9-8.6,5.7-13,8.5
			c-5.8,3.7-11.8,7-18,9.9C473.9,221.4,466,224.5,458.1,227.4z M478.6,161.7c0.4-0.9,1-1.3,1.9-1.1c0.9,0.2,1.3,0.9,1.1,1.9
			c-1.3,4.8-2.6,9.6-4.1,14.3c-5.1,17-11.3,33.6-18.4,49.8c-0.5,0.8-1.2,1-2.1,0.6c-0.8-0.6-1-1.3-0.6-2.1c2-4.5,3.9-9.1,5.7-13.6
			C468.5,195.2,474,178.6,478.6,161.7z M505.4,226.4c-0.4,0.9-1,1.3-1.9,1.1c-0.9-0.2-1.3-0.9-1.1-1.9c1.3-4.8,2.6-9.6,4.1-14.3
			c5.2-16.9,11.3-33.5,18.5-49.7c0.6-0.8,1.3-1,2.1-0.6c0.7,0.6,0.9,1.3,0.6,2.1c-2,4.5-3.9,9-5.7,13.6
			C515.4,192.9,509.9,209.5,505.4,226.4z"/>
	</g>
	<path class="st1" d="M39.4,234.6c-23.5-61.1,6.1-109.4,72.6-110.4c48.5-0.7,107.9,4.9,122.3-71.2c-51.9,50.5-101.7,15.4-163.8,32.4
		C-5.6,106.3-26.3,195.5,39.4,234.6"/>
	<path class="st1" d="M89.2,1.3C108.7-4,128.7,7.6,134,27.1c5.2,19.5-6.3,39.5-25.8,44.7C88.6,77,68.6,65.5,63.4,46
		C58.2,26.5,69.7,6.5,89.2,1.3"/>
</g>
</svg>
